<svg xmlns="http://www.w3.org/2000/svg" xmlns:xlink="http://www.w3.org/1999/xlink" width="500" zoomAndPan="magnify" viewBox="0 0 375 374.999991" height="500" preserveAspectRatio="xMidYMid meet" version="1.0"><defs><g/></defs><g fill="#057bc1" fill-opacity="1"><g transform="translate(141.978472, 132.687715)"><g><path d="M 7.140625 -3.421875 L 4.15625 -2 L -9.03125 -29.46875 L -4.25 -31.765625 L 15.234375 -12.5 L 15.640625 -12.6875 L 12.78125 -39.9375 L 17.40625 -42.15625 L 30.59375 -14.6875 L 27.546875 -13.21875 L 16.796875 -35.625 L 16.296875 -35.46875 L 18.953125 -9.09375 L 15.734375 -7.546875 L -3.171875 -26.140625 L -3.609375 -25.828125 Z M 7.140625 -3.421875 "/></g></g></g><g fill="#057bc1" fill-opacity="1"><g transform="translate(173.173561, 119.396432)"><g/></g></g><g fill="#057bc1" fill-opacity="1"><g transform="translate(180.305701, 117.289725)"><g><path d="M 11.953125 1.6875 C 9.003906 1.382812 6.738281 0.476562 5.15625 -1.03125 C 3.570312 -2.539062 2.640625 -4.5 2.359375 -6.90625 L 5.15625 -7.8125 L 5.625 -7.6875 C 5.945312 -5.820312 6.613281 -4.382812 7.625 -3.375 C 8.632812 -2.363281 10.191406 -1.75 12.296875 -1.53125 C 14.441406 -1.3125 16.125 -1.628906 17.34375 -2.484375 C 18.5625 -3.347656 19.269531 -4.734375 19.46875 -6.640625 C 19.664062 -8.503906 19.242188 -9.984375 18.203125 -11.078125 C 17.160156 -12.179688 15.414062 -12.859375 12.96875 -13.109375 L 9.671875 -13.453125 L 9.984375 -16.40625 L 12.921875 -16.109375 C 14.828125 -15.910156 16.390625 -16.222656 17.609375 -17.046875 C 18.835938 -17.867188 19.539062 -19.144531 19.71875 -20.875 C 19.894531 -22.519531 19.535156 -23.804688 18.640625 -24.734375 C 17.753906 -25.660156 16.4375 -26.210938 14.6875 -26.390625 C 11.625 -26.710938 9.320312 -25.726562 7.78125 -23.4375 L 7.28125 -23.40625 L 5.53125 -25.78125 C 6.5 -27.082031 7.789062 -28.082031 9.40625 -28.78125 C 11.03125 -29.476562 12.898438 -29.71875 15.015625 -29.5 C 16.953125 -29.300781 18.566406 -28.832031 19.859375 -28.09375 C 21.148438 -27.351562 22.085938 -26.378906 22.671875 -25.171875 C 23.265625 -23.960938 23.476562 -22.570312 23.3125 -21 C 23.15625 -19.507812 22.585938 -18.242188 21.609375 -17.203125 C 20.640625 -16.160156 19.398438 -15.390625 17.890625 -14.890625 L 17.859375 -14.453125 C 19.816406 -13.765625 21.226562 -12.707031 22.09375 -11.28125 C 22.96875 -9.851562 23.304688 -8.179688 23.109375 -6.265625 C 22.804688 -3.398438 21.71875 -1.269531 19.84375 0.125 C 17.96875 1.519531 15.335938 2.039062 11.953125 1.6875 Z M 11.953125 1.6875 "/></g></g></g><g fill="#057bc1" fill-opacity="1"><g transform="translate(201.591464, 119.950603)"><g/></g></g><g fill="#057bc1" fill-opacity="1"><g transform="translate(208.996296, 121.470177)"><g><path d="M 1.84375 1.140625 L 3.390625 -1.375 L 10.484375 2.96875 L 22.6875 -16.875 L 22.328125 -17.234375 C 20.828125 -17.367188 19.550781 -17.550781 18.5 -17.78125 C 17.457031 -18.019531 16.175781 -18.40625 14.65625 -18.9375 L 16.390625 -21.75 C 17.890625 -21.207031 19.441406 -20.773438 21.046875 -20.453125 C 22.648438 -20.140625 24.1875 -19.984375 25.65625 -19.984375 L 27.859375 -18.625 L 13.453125 4.8125 L 19.796875 8.703125 L 18.25 11.21875 Z M 1.84375 1.140625 "/></g></g></g><g fill="#057bc1" fill-opacity="1"><g transform="translate(139.918043, 231.002119)"><g><path d="M -3.421875 -7.140625 L -2 -4.15625 L -29.46875 9.03125 L -31.765625 4.25 L -12.5 -15.234375 L -12.6875 -15.640625 L -39.9375 -12.78125 L -42.15625 -17.40625 L -14.6875 -30.59375 L -13.21875 -27.546875 L -35.625 -16.796875 L -35.46875 -16.296875 L -9.09375 -18.953125 L -7.546875 -15.734375 L -26.140625 3.171875 L -25.828125 3.609375 Z M -3.421875 -7.140625 "/></g></g></g><g fill="#057bc1" fill-opacity="1"><g transform="translate(126.626751, 199.807031)"><g/></g></g><g fill="#057bc1" fill-opacity="1"><g transform="translate(124.520044, 192.674891)"><g><path d="M 1.6875 -11.953125 C 1.382812 -9.003906 0.476562 -6.738281 -1.03125 -5.15625 C -2.539062 -3.570312 -4.5 -2.640625 -6.90625 -2.359375 L -7.8125 -5.15625 L -7.6875 -5.625 C -5.820312 -5.945312 -4.382812 -6.613281 -3.375 -7.625 C -2.363281 -8.632812 -1.75 -10.191406 -1.53125 -12.296875 C -1.3125 -14.441406 -1.628906 -16.125 -2.484375 -17.34375 C -3.347656 -18.5625 -4.734375 -19.269531 -6.640625 -19.46875 C -8.503906 -19.664062 -9.984375 -19.242188 -11.078125 -18.203125 C -12.179688 -17.160156 -12.859375 -15.414062 -13.109375 -12.96875 L -13.453125 -9.671875 L -16.40625 -9.984375 L -16.109375 -12.921875 C -15.910156 -14.828125 -16.222656 -16.390625 -17.046875 -17.609375 C -17.867188 -18.835938 -19.144531 -19.539062 -20.875 -19.71875 C -22.519531 -19.894531 -23.804688 -19.535156 -24.734375 -18.640625 C -25.660156 -17.753906 -26.210938 -16.4375 -26.390625 -14.6875 C -26.710938 -11.625 -25.726562 -9.320312 -23.4375 -7.78125 L -23.40625 -7.28125 L -25.78125 -5.53125 C -27.082031 -6.5 -28.082031 -7.789062 -28.78125 -9.40625 C -29.476562 -11.03125 -29.71875 -12.898438 -29.5 -15.015625 C -29.300781 -16.953125 -28.832031 -18.566406 -28.09375 -19.859375 C -27.351562 -21.148438 -26.378906 -22.085938 -25.171875 -22.671875 C -23.960938 -23.265625 -22.570312 -23.476562 -21 -23.3125 C -19.507812 -23.15625 -18.242188 -22.585938 -17.203125 -21.609375 C -16.160156 -20.640625 -15.390625 -19.398438 -14.890625 -17.890625 L -14.453125 -17.859375 C -13.765625 -19.816406 -12.707031 -21.226562 -11.28125 -22.09375 C -9.851562 -22.96875 -8.179688 -23.304688 -6.265625 -23.109375 C -3.398438 -22.804688 -1.269531 -21.71875 0.125 -19.84375 C 1.519531 -17.96875 2.039062 -15.335938 1.6875 -11.953125 Z M 1.6875 -11.953125 "/></g></g></g><g fill="#057bc1" fill-opacity="1"><g transform="translate(127.180922, 171.389127)"><g/></g></g><g fill="#057bc1" fill-opacity="1"><g transform="translate(128.700488, 163.984278)"><g><path d="M 1.140625 -1.84375 L -1.375 -3.390625 L 2.96875 -10.484375 L -16.875 -22.6875 L -17.234375 -22.328125 C -17.367188 -20.828125 -17.550781 -19.550781 -17.78125 -18.5 C -18.019531 -17.457031 -18.40625 -16.175781 -18.9375 -14.65625 L -21.75 -16.390625 C -21.207031 -17.890625 -20.773438 -19.441406 -20.453125 -21.046875 C -20.140625 -22.648438 -19.984375 -24.1875 -19.984375 -25.65625 L -18.625 -27.859375 L 4.8125 -13.453125 L 8.703125 -19.796875 L 11.21875 -18.25 Z M 1.140625 -1.84375 "/></g></g></g><g fill="#057bc1" fill-opacity="1"><g transform="translate(231.019526, 242.301244)"><g><path d="M -7.140625 3.421875 L -4.15625 2 L 9.03125 29.46875 L 4.25 31.765625 L -15.234375 12.5 L -15.640625 12.6875 L -12.78125 39.9375 L -17.40625 42.15625 L -30.59375 14.6875 L -27.546875 13.21875 L -16.796875 35.625 L -16.296875 35.46875 L -18.953125 9.09375 L -15.734375 7.546875 L 3.171875 26.140625 L 3.609375 25.828125 Z M -7.140625 3.421875 "/></g></g></g><g fill="#057bc1" fill-opacity="1"><g transform="translate(199.824421, 255.592536)"><g/></g></g><g fill="#057bc1" fill-opacity="1"><g transform="translate(192.692283, 257.699234)"><g><path d="M -11.953125 -1.6875 C -9.003906 -1.382812 -6.738281 -0.476562 -5.15625 1.03125 C -3.570312 2.539062 -2.640625 4.5 -2.359375 6.90625 L -5.15625 7.8125 L -5.625 7.6875 C -5.945312 5.820312 -6.613281 4.382812 -7.625 3.375 C -8.632812 2.363281 -10.191406 1.75 -12.296875 1.53125 C -14.441406 1.3125 -16.125 1.628906 -17.34375 2.484375 C -18.5625 3.347656 -19.269531 4.734375 -19.46875 6.640625 C -19.664062 8.503906 -19.242188 9.984375 -18.203125 11.078125 C -17.160156 12.179688 -15.414062 12.859375 -12.96875 13.109375 L -9.671875 13.453125 L -9.984375 16.40625 L -12.921875 16.109375 C -14.828125 15.910156 -16.390625 16.222656 -17.609375 17.046875 C -18.835938 17.867188 -19.539062 19.144531 -19.71875 20.875 C -19.894531 22.519531 -19.535156 23.804688 -18.640625 24.734375 C -17.753906 25.660156 -16.4375 26.210938 -14.6875 26.390625 C -11.625 26.710938 -9.320312 25.726562 -7.78125 23.4375 L -7.28125 23.40625 L -5.53125 25.78125 C -6.5 27.082031 -7.789062 28.082031 -9.40625 28.78125 C -11.03125 29.476562 -12.898438 29.71875 -15.015625 29.5 C -16.953125 29.300781 -18.566406 28.832031 -19.859375 28.09375 C -21.148438 27.351562 -22.085938 26.378906 -22.671875 25.171875 C -23.265625 23.960938 -23.476562 22.570312 -23.3125 21 C -23.15625 19.507812 -22.585938 18.242188 -21.609375 17.203125 C -20.640625 16.160156 -19.398438 15.390625 -17.890625 14.890625 L -17.859375 14.453125 C -19.816406 13.765625 -21.226562 12.707031 -22.09375 11.28125 C -22.96875 9.851562 -23.304688 8.179688 -23.109375 6.265625 C -22.804688 3.398438 -21.71875 1.269531 -19.84375 -0.125 C -17.96875 -1.519531 -15.335938 -2.039062 -11.953125 -1.6875 Z M -11.953125 -1.6875 "/></g></g></g><g fill="#057bc1" fill-opacity="1"><g transform="translate(171.40652, 255.038349)"><g/></g></g><g fill="#057bc1" fill-opacity="1"><g transform="translate(164.001685, 253.518768)"><g><path d="M -1.84375 -1.140625 L -3.390625 1.375 L -10.484375 -2.96875 L -22.6875 16.875 L -22.328125 17.234375 C -20.828125 17.367188 -19.550781 17.550781 -18.5 17.78125 C -17.457031 18.019531 -16.175781 18.40625 -14.65625 18.9375 L -16.390625 21.75 C -17.890625 21.207031 -19.441406 20.773438 -21.046875 20.453125 C -22.648438 20.140625 -24.1875 19.984375 -25.65625 19.984375 L -27.859375 18.625 L -13.453125 -4.8125 L -19.796875 -8.703125 L -18.25 -11.21875 Z M -1.84375 -1.140625 "/></g></g></g><g fill="#057bc1" fill-opacity="1"><g transform="translate(235.080828, 141.961065)"><g><path d="M 3.421875 7.140625 L 2 4.15625 L 29.46875 -9.03125 L 31.765625 -4.25 L 12.5 15.234375 L 12.6875 15.640625 L 39.9375 12.78125 L 42.15625 17.40625 L 14.6875 30.59375 L 13.21875 27.546875 L 35.625 16.796875 L 35.46875 16.296875 L 9.09375 18.953125 L 7.546875 15.734375 L 26.140625 -3.171875 L 25.828125 -3.609375 Z M 3.421875 7.140625 "/></g></g></g><g fill="#057bc1" fill-opacity="1"><g transform="translate(248.37212, 173.156154)"><g/></g></g><g fill="#057bc1" fill-opacity="1"><g transform="translate(250.47882, 180.288294)"><g><path d="M -1.6875 11.953125 C -1.382812 9.003906 -0.476562 6.738281 1.03125 5.15625 C 2.539062 3.570312 4.5 2.640625 6.90625 2.359375 L 7.8125 5.15625 L 7.6875 5.625 C 5.820312 5.945312 4.382812 6.613281 3.375 7.625 C 2.363281 8.632812 1.75 10.191406 1.53125 12.296875 C 1.3125 14.441406 1.628906 16.125 2.484375 17.34375 C 3.347656 18.5625 4.734375 19.269531 6.640625 19.46875 C 8.503906 19.664062 9.984375 19.242188 11.078125 18.203125 C 12.179688 17.160156 12.859375 15.414062 13.109375 12.96875 L 13.453125 9.671875 L 16.40625 9.984375 L 16.109375 12.921875 C 15.910156 14.828125 16.222656 16.390625 17.046875 17.609375 C 17.867188 18.835938 19.144531 19.539062 20.875 19.71875 C 22.519531 19.894531 23.804688 19.535156 24.734375 18.640625 C 25.660156 17.753906 26.210938 16.4375 26.390625 14.6875 C 26.710938 11.625 25.726562 9.320312 23.4375 7.78125 L 23.40625 7.28125 L 25.78125 5.53125 C 27.082031 6.5 28.082031 7.789062 28.78125 9.40625 C 29.476562 11.03125 29.71875 12.898438 29.5 15.015625 C 29.300781 16.953125 28.832031 18.566406 28.09375 19.859375 C 27.351562 21.148438 26.378906 22.085938 25.171875 22.671875 C 23.960938 23.265625 22.570312 23.476562 21 23.3125 C 19.507812 23.15625 18.242188 22.585938 17.203125 21.609375 C 16.160156 20.640625 15.390625 19.398438 14.890625 17.890625 L 14.453125 17.859375 C 13.765625 19.816406 12.707031 21.226562 11.28125 22.09375 C 9.851562 22.96875 8.179688 23.304688 6.265625 23.109375 C 3.398438 22.804688 1.269531 21.71875 -0.125 19.84375 C -1.519531 17.96875 -2.039062 15.335938 -1.6875 11.953125 Z M -1.6875 11.953125 "/></g></g></g><g fill="#057bc1" fill-opacity="1"><g transform="translate(247.817934, 201.574043)"><g/></g></g><g fill="#057bc1" fill-opacity="1"><g transform="translate(246.298354, 208.978889)"><g><path d="M -1.140625 1.84375 L 1.375 3.390625 L -2.96875 10.484375 L 16.875 22.6875 L 17.234375 22.328125 C 17.367188 20.828125 17.550781 19.550781 17.78125 18.5 C 18.019531 17.457031 18.40625 16.175781 18.9375 14.65625 L 21.75 16.390625 C 21.207031 17.890625 20.773438 19.441406 20.453125 21.046875 C 20.140625 22.648438 19.984375 24.1875 19.984375 25.65625 L 18.625 27.859375 L -4.8125 13.453125 L -8.703125 19.796875 L -11.21875 18.25 Z M -1.140625 1.84375 "/></g></g></g></svg>